{"title":"Ted 2 {2015} 1080P HDCAM X264 AC3-MRG","uid":12154427,"size":2078854247,"categoryP":"video","categoryS":"movies","magnet":"?xt=urn:btih:c91c63bc153b823f6ecb915a4c4fff8384e06baa&amp;dn=Ted+2+%7B2015%7D+1080P+HDCAM+X264+AC3-MRG&amp;tr=udp%3A%2F%2Ftracker.openbittorrent.com%3A80&amp;tr=udp%3A%2F%2Fopen.demonii.com%3A1337&amp;tr=udp%3A%2F%2Ftracker.coppersurfer.tk%3A6969&amp;tr=udp%3A%2F%2Fexodus.desync.com%3A6969","seeders":0,"leechers":0,"uploader":"TvTeam","files":4,"time":1437736259,"description":"------------------------------------------------------------------------\n\n &lt;a href=&quot; https://www.torrenting.com&quot; rel=&quot;nofollow&quot; target=&quot;_NEW&quot;&gt; https://www.torrenting.com&lt;/a&gt;\n\nSign up is OPEN - for time being. Come and have fun\n\n.......................................................................................................................[img]http://i.imgur.com/ZZ12ljr.jpg[/img]\n &lt;a href=&quot;\nhttp://www.imdb.com/title/tt2637276/&quot; rel=&quot;nofollow&quot; target=&quot;_NEW&quot;&gt;\nhttp://www.imdb.com/title/tt2637276/&lt;/a&gt;\n\nTed 2 {2015} 1080P HDCAM X264 AC3-MRG.mkv \n\nNEW SOURCE MISSING ABIT BUT QUALITY VERY GD 4 CAM...:) \n\nSOURCE : SEMIR...TY BRO \n\nFormat : Matroska \nFormat version : Version 2 \nFile size : 1.94 GiB \nDuration : 1h 28mn \nOverall bit rate mode : Variable \nOverall bit rate : 3 125 Kbps \nWriting application : Lavf54.63.104 \nWriting library : Lavf54.63.104 \n\nVideo\nID : 1 \nFormat : AVC \nFormat/Info : Advanced Video Codec \nFormat profile : High@L4 \nFormat settings, CABAC : Yes \nFormat settings, ReFrames : 3 frames \nCodec ID : V_MPEG4/ISO/AVC \nDuration : 1h 28mn \nBit rate mode : Variable \nBit rate : 2 934 Kbps \nMaximum bit rate : 8 000 Kbps \nWidth : 1 920 pixels \nHeight : 1 080 pixels \nDisplay aspect ratio : 16:9 \nFrame rate mode : Constant \nFrame rate : 29.970 fps \nStandard : NTSC C\nolor space : YUV \nChroma subsampling : 4:2:0 \nBit depth : 8 bits \nScan type : Progressive \nBits/(Pixel*Frame) : 0.047 \nStream size : 1.82 GiB (94%) \nDefault : Yes \nForced : No \nColor range : Limited \nColor primaries : BT.709 T\nransfer characteristics : BT.709 \nMatrix coefficients : BT.709 \n\nAudio ID : 2 \nFormat : AC-3 \nFormat/Info : Audio Coding 3 \nMode extension : CM (complete main) \nFormat settings, Endianness : Big \nCodec ID : A_AC3 \nDuration : 1h 28mn \nBit rate mode : Constant \nBit rate : 128 Kbps \nChannel(s) : 2 channels \nChannel positions : Front: L R \nSampling rate : 44.1 KHz \nCompression mode : Lossy \nDelay relative to video : 1ms \nStream size : 81.2 MiB (4%) \nLanguage : unknown \nDefault : Yes \nForced : No\n\n[img]http://i.imgur.com/OKLTKTz.jpg[/img]","torrent":{"xt":"urn:btih:c91c63bc153b823f6ecb915a4c4fff8384e06baa","amp;dn":"Ted+2+%7B2015%7D+1080P+HDCAM+X264+AC3-MRG","amp;tr":["udp%3A%2F%2Ftracker.openbittorrent.com%3A80","udp%3A%2F%2Fopen.demonii.com%3A1337","udp%3A%2F%2Ftracker.coppersurfer.tk%3A6969","udp%3A%2F%2Fexodus.desync.com%3A6969"],"infoHash":"c91c63bc153b823f6ecb915a4c4fff8384e06baa","infoHashBuffer":{"type":"Buffer","data":[201,28,99,188,21,59,130,63,110,203,145,90,76,79,255,131,132,224,107,170]},"announce":[],"urlList":[]}}